<svg width="12" height="12" viewBox="0 0 12 12" xmlns="http://www.w3.org/2000/svg">
    <path id="path1" fill="#d52735" stroke="none" d="M 12 6 C 12 9.313708 9.313708 12 6 12 C 2.686291 12 0 9.313708 0 6 C 0 2.686292 2.686291 0 6 0 C 9.313708 0 12 2.686292 12 6 Z"/>
    <path id="path2" fill="#f25056" stroke="none" d="M 11.5 6 C 11.5 9.037566 9.037566 11.5 6 11.5 C 2.962434 11.5 0.5 9.037566 0.5 6 C 0.5 2.962434 2.962434 0.5 6 0.5 C 9.037566 0.5 11.5 2.962434 11.5 6 Z"/>
    <path id="path3" fill="#9f1d2b" stroke="none" d="M 3.24761 2.800008 C 3.108762 2.800749 2.968722 2.855196 2.861556 2.962938 C 2.647222 3.178423 2.646809 3.518367 2.856409 3.727859 L 5.177884 6.05006 L 2.856409 8.372263 C 2.646809 8.581754 2.647222 8.921698 2.861556 9.137182 C 3.075889 9.352667 3.418866 9.353556 3.628517 9.144044 L 5.949993 6.823555 L 8.271469 9.144044 C 8.481069 9.353596 8.824076 9.352619 9.038431 9.137182 C 9.252788 8.921728 9.253191 8.581754 9.043579 8.372263 L 6.722102 6.05006 L 9.043579 3.727859 C 9.253191 3.518367 9.252788 3.178392 9.038431 2.962938 C 8.824076 2.747485 8.481069 2.746524 8.271469 2.956078 L 5.949993 5.276565 L 3.628517 2.956078 C 3.523692 2.851303 3.386458 2.799264 3.24761 2.800008 Z"/>
</svg>
