<svg width="12" height="12" viewBox="0 0 12 12" xmlns="http://www.w3.org/2000/svg">
    <path id="path1" fill="#d52735" stroke="none" d="M 12 6 C 12 9.313708 9.313708 12 6 12 C 2.686291 12 0 9.313708 0 6 C -0 2.686292 2.686291 0 6 0 C 9.313708 0 12 2.686292 12 6 Z"/>
    <path id="path2" fill="#f25056" stroke="none" d="M 11.5 6 C 11.5 9.037566 9.037566 11.5 6 11.5 C 2.962434 11.5 0.5 9.037566 0.5 6 C 0.5 2.962434 2.962434 0.5 6 0.5 C 9.037566 0.5 11.5 2.962434 11.5 6 Z"/>
    <path id="path3" fill="#9f1d2b" stroke="none" d="M 2.923828 2.298828 C 2.765775 2.299673 2.606365 2.361677 2.484375 2.484375 C 2.240395 2.72977 2.239925 3.116899 2.478516 3.355469 L 5.121094 6 L 2.478516 8.644531 C 2.239925 8.883101 2.240395 9.27023 2.484375 9.515625 C 2.728355 9.76102 3.118772 9.762032 3.357422 9.523438 L 6 6.880859 L 8.642578 9.523438 C 8.881168 9.762078 9.27162 9.760965 9.515625 9.515625 C 9.75963 9.270265 9.760089 8.883101 9.521484 8.644531 L 6.878906 6 L 9.521484 3.355469 C 9.760089 3.116899 9.75963 2.729735 9.515625 2.484375 C 9.27162 2.239015 8.881168 2.237923 8.642578 2.476563 L 6 5.119141 L 3.357422 2.476563 C 3.238097 2.357245 3.081882 2.297983 2.923828 2.298828 Z"/>
</svg>
