<svg width="12" height="12" viewBox="0 0 12 12" xmlns="http://www.w3.org/2000/svg">
    <path id="path1" fill="#13c11e" stroke="none" d="M 12 6 C 12 9.313708 9.313708 12 6 12 C 2.686291 12 0 9.313708 0 6 C -0 2.686292 2.686291 0 6 0 C 9.313708 0 12 2.686292 12 6 Z"/>
    <path id="path2" fill="#39ea49" stroke="none" d="M 11.5 6 C 11.5 9.037566 9.037566 11.5 6 11.5 C 2.962434 11.5 0.5 9.037566 0.5 6 C 0.5 2.962434 2.962434 0.5 6 0.5 C 9.037566 0.5 11.5 2.962434 11.5 6 Z"/>
    <path id="path3" fill="#0b7407" stroke="none" d="M 4.07797 9.625 L 8.51922 9.625 C 9.1106 9.625 9.5945 9.14113 9.5945 8.54974 L 9.5945 4.10884 Z M 7.93955 2.375 L 3.48078 2.375 C 2.88934 2.375 2.4055 2.8588 2.4055 3.45019 L 2.4055 7.90868 Z"/>
</svg>
