<svg width="12" height="12" viewBox="0 0 12 12" xmlns="http://www.w3.org/2000/svg">
    <path id="path1" fill="#13c11e" stroke="none" d="M 12 6 C 12 9.313708 9.313708 12 6 12 C 2.686291 12 0 9.313708 0 6 C 0 2.686292 2.686291 0 6 0 C 9.313708 0 12 2.686292 12 6 Z"/>
    <path id="path2" fill="#39ea49" stroke="none" d="M 11.5 6 C 11.5 9.037566 9.037566 11.5 6 11.5 C 2.962434 11.5 0.5 9.037566 0.5 6 C 0.5 2.962434 2.962434 0.5 6 0.5 C 9.037566 0.5 11.5 2.962434 11.5 6 Z"/>
    <path id="path3" fill="#0b7407" stroke="none" d="M 4.479536 8.8 L 7.877349 8.8 C 8.32979 8.8 8.7 8.432926 8.7 7.984285 L 8.7 4.615325 Z M 7.433868 3.3 L 4.022652 3.3 C 3.570166 3.3 3.2 3.667021 3.2 4.115662 L 3.2 7.497964 Z"/>
</svg>
