<svg width="12" height="12" viewBox="0 0 12 12" xmlns="http://www.w3.org/2000/svg">
    <path id="path1" fill="#da9e10" stroke="none" d="M 12 6 C 12 9.313708 9.313708 12 6 12 C 2.686291 12 0 9.313708 0 6 C 0 2.686292 2.686291 0 6 0 C 9.313708 0 12 2.686292 12 6 Z"/>
    <path id="path2" fill="#fac536" stroke="none" d="M 11.5 6 C 11.5 9.037566 9.037566 11.5 6 11.5 C 2.962434 11.5 0.5 9.037566 0.5 6 C 0.5 2.962434 2.962434 0.5 6 0.5 C 9.037566 0.5 11.5 2.962434 11.5 6 Z"/>
    <path id="path3" fill="#975914" stroke="none" d="M 9.337356 6.591498 C 9.591832 6.591498 9.8 6.328881 9.8 6 C 9.8 5.671119 9.591832 5.408502 9.337356 5.408502 L 2.762642 5.408502 C 2.508154 5.408502 2.3 5.671119 2.3 6 C 2.3 6.328881 2.508154 6.591498 2.762642 6.591498 Z"/>
</svg>
